<?xml version="1.0" encoding="utf-8"?>
<!-- Generator: Adobe Illustrator 23.0.2, SVG Export Plug-In . SVG Version: 6.00 Build 0)  -->
<svg version="1.1" id="Capa_1" xmlns="http://www.w3.org/2000/svg" xmlns:xlink="http://www.w3.org/1999/xlink" x="0px" y="0px"
	 viewBox="0 0 400 400" style="enable-background:new 0 0 400 400;" xml:space="preserve">
<style type="text/css">
	.st0{fill:#413F39;}
	.st1{fill:#656B75;}
	.st2{fill:#F3B608;}
	.st3{fill:#434343;}
	.st4{fill:#656A75;}
	.st5{fill:#646A74;}
	.st6{fill:#F5DD0A;}
	.st7{fill:#8B9092;}
	.st8{fill:#888D8E;}
	.st9{fill:#4A442D;}
	.st10{fill:#868B8C;}
	.st11{fill:#514C2C;}
</style>
<g>
	<path class="st0" d="M91.63,268.48c-17.62,11.39-36.93,5.52-55.4,4.36c-9.33-0.59-15.81-8.75-17.64-18.62
		c-2.1-11.32,2.61-19.99,12.34-25.5c26.09-14.79,48.58-33.7,67.12-57.28c23.18-10.5,45.38-8.53,66.65,5.23
		c4.16,7.46,10.2,10.59,18.89,12.77c22,5.52,45,10.47,64.5,21.26c12.24,6.77,16.89,4.28,24.79-3
		c42.33-38.96,45.78-91.86,8.73-137.76c-27.71-34.32-68.61-46.45-110.89-32.87c-2.59,1.3-5.18,2.6-7.77,3.9c0,0-0.67-0.24-0.67-0.24
		c-41.99,14.61-59.52,46.97-64.42,88.57c-1.26,10.69,3.68,22.05-3.48,32.09c-16.22-17.66-9.58-37.74-4.53-56.6
		C111.4,24.3,204.24-8.3,270.05,42.27c13.56,10.42,24.09,14.1,40.19,8.6c16.29-5.57,31.91-2.06,43.18,12.76
		c-2.65,1.76-5.29,3.52-7.93,5.28c-8.94-3.83-17.34-9.73-27.92-7.19c-4.04,4.54-21.14-0.07-9.18,15.79
		c11.02,14.6,14.98,32.74,15.1,51.3c-0.19,27.93-6.88,52.48-28.05,73.32c-15.9,15.65-35.52,29.54-39.75,54.73
		c-1.34,7.97-10.41,14.23-18.11,14.68c-44.78,2.64-89.75,8.75-134.22-3.06c7.37-9.89,18.15-6.36,27.66-6.5
		c26.91-0.42,53.84-0.02,80.76-0.2c15.31-0.11,30.16-1.62,37.13-18.6c1.78-15.42-5.02-26.29-19.92-28.69
		c-29.35-4.73-56.65-12.6-81.05-31.07c-15.17-11.49-32.24-8.82-46.25,5.33c-15.85,20.54-36.16,35.96-57.98,49.39
		c-5.31,3.27-11.61,5.14-10.86,12.39c0.92,8.83,8.25,9.97,15.55,11.26C62.76,264.29,78.88,255.69,91.63,268.48z"/>
	<path class="st1" d="M248.9,243.16c-6.97,16.98-21.82,18.5-37.13,18.6c-26.92,0.19-53.84-0.21-80.76,0.2
		c-9.51,0.15-20.29-3.39-27.66,6.5c-3.91,0-7.82,0-11.72,0c-12.75-12.78-28.87-4.18-43.25-6.7c-7.3-1.28-14.63-2.42-15.55-11.26
		c-0.75-7.25,5.56-9.12,10.86-12.39c21.82-13.43,42.13-28.85,57.99-49.39c9.91,0.59,20.73-1.58,29.12,4.85
		C165.9,220.47,212.49,219.64,248.9,243.16z"/>
	<path class="st2" d="M94.36,161.39c7.16-10.04,2.22-21.4,3.48-32.09c4.9-41.6,22.43-73.97,64.42-88.57
		c4.06,9.35-4.22,16.85-3.85,25.64c-23.11,5.66-7.23,10.93-0.04,16.92c5.1,4.25,6.88,9.77,1.38,15.29
		c-5.24,5.25-10.18,4.53-15.2-0.78c-3.69-3.9-3.59-12.26-14.62-10.28c-4.78,15.02,6.11,21.86,16.42,28.98
		c-0.55,22.09,14.05,39.56,18.34,60.17c-21.28-13.76-43.48-15.72-66.65-5.23C96.81,168.09,95.59,164.74,94.36,161.39z"/>
	<path class="st3" d="M280.59,378.21c-18.49,11.82-38.74,4.33-58.17,4.82c-7.46,0.19-12.61-6.25-14.46-13.54
		c-2.32-9.13,2.12-17.49,9.95-19.82c17.24-5.13,24.89-17.91,33.58-31.96c13.19-21.33,36.24-25.74,55.85-15
		c22.07,12.08,45.29,24.08,63.29,42.94c11.05,11.58,10.06,24.57-3.74,29.31c-23.92,8.21-49.19,17.5-74.67,3.26
		c13.21-16.1,35.76,2.47,49.08-13.23c7.08-2.06,16.07,3.43,22.13-5.59c-5.97-7.09-11.3-14.2-21.91-12.34l0.03,0.06
		c-3.32-17.51-19.5-13.59-30.5-18.29l0.01-0.02c-7.47-19.16-20.18-22.08-37.09-11.96c-16.16,16.07-27.35,36.39-47.86,49.83
		C245.52,377.55,265.81,363.24,280.59,378.21z"/>
	<path class="st4" d="M280.59,378.21c-14.77-14.97-35.07-0.66-54.5-11.54c20.51-13.43,31.7-33.76,47.86-49.82
		c12.36,3.99,24.72,7.97,37.08,11.95c0,0-0.01,0.02-0.01,0.02c3.13,17.82,19.3,13.91,30.5,18.29c0,0-0.03-0.06-0.03-0.06
		c-0.07,5.98-0.15,11.95-0.22,17.93c-13.31,15.71-35.87-2.87-49.08,13.23C288.33,378.21,284.46,378.21,280.59,378.21z"/>
	<path class="st5" d="M323.48,128.8c-0.12-18.56-4.08-36.7-15.1-51.3c-11.97-15.86,5.14-11.25,9.17-15.79
		c5.58,9.15,10.14,19.69,20.3,24.38c15.37,7.1,21.76,18.94,22.13,35.04c-8.52,1.92-18.93-2.66-25.12,7.3
		C331.07,128.55,327.28,128.68,323.48,128.8z"/>
	<path class="st0" d="M334.87,128.43c6.19-9.96,16.6-5.37,25.12-7.29c22.48-13.55,24.15-23.85,3.84-34.4
		c-8.69-4.51-14.94-9.05-18.35-17.84c2.64-1.76,5.29-3.52,7.93-5.28c3.77,3.13,7.07,7.41,11.4,9.19
		c19.23,7.9,31.71,21.17,22.26,41.66C376.49,137.43,356.59,139.77,334.87,128.43z"/>
	<path class="st6" d="M164.7,176.67c-4.3-20.61-18.89-38.08-18.34-60.17c14.09-0.07,25.55-5.1,29.47-19.5
		c4.13-15.2-5.89-23.64-17.42-30.62c-0.38-8.79,7.91-16.29,3.85-25.64c0-0.01,0.67,0.23,0.68,0.24c2.59-1.3,5.18-2.6,7.77-3.9
		c42.28-13.57,83.19-1.45,110.89,32.87c37.05,45.9,33.6,98.8-8.73,137.76c-7.9,7.27-12.55,9.77-24.79,3
		c-19.5-10.79-42.5-15.74-64.5-21.26C174.9,187.26,168.85,184.13,164.7,176.67z M225.17,60.01c-6.23-5.11-12.84-14.64-20.82-15.99
		c-9.38-1.58-16.11,7.83-15.01,18.22c1.24,11.68,8.92,18.04,20.79,16.35C218.76,77.37,224.21,71.57,225.17,60.01z"/>
	<path class="st7" d="M248.9,243.16c-36.4-23.52-83-22.7-118.1-49.58c-8.39-6.43-19.21-4.25-29.12-4.85
		c14-14.16,31.07-16.82,46.24-5.33c24.39,18.47,51.7,26.35,81.05,31.07C243.88,216.88,250.67,227.74,248.9,243.16z"/>
	<path class="st8" d="M345.48,68.9c3.4,8.79,9.65,13.32,18.35,17.84c20.32,10.55,18.64,20.85-3.84,34.4
		c-0.38-16.1-6.76-27.94-22.13-35.04c-10.16-4.69-14.72-15.23-20.3-24.38C328.14,59.17,336.54,65.07,345.48,68.9z"/>
	<path class="st2" d="M170.71,37.07c-2.59,1.3-5.17,2.61-7.77,3.9C165.52,39.67,168.11,38.37,170.71,37.07z"/>
	<path class="st9" d="M158.41,66.37c11.53,6.98,21.55,15.42,17.42,30.62c-3.92,14.41-15.38,19.43-29.47,19.5
		c-10.31-7.12-21.2-13.96-16.42-28.98c11.03-1.98,10.93,6.38,14.62,10.28c5.02,5.32,9.96,6.03,15.2,0.78
		c5.5-5.51,3.72-11.04-1.38-15.29C151.18,77.3,135.31,72.04,158.41,66.37z"/>
	<path class="st10" d="M311.04,328.8c-12.36-3.98-24.72-7.97-37.08-11.95C290.86,306.72,303.57,309.64,311.04,328.8z"/>
	<path class="st10" d="M341.28,364.98c0.07-5.98,0.15-11.95,0.22-17.93c10.6-1.85,15.93,5.25,21.91,12.34
		C357.36,368.4,348.36,362.92,341.28,364.98z"/>
	<path class="st10" d="M341.53,347.11c-11.2-4.37-27.37-0.46-30.5-18.29C322.03,333.52,338.21,329.59,341.53,347.11z"/>
	<path class="st11" d="M225.17,60.01c-0.96,11.56-6.41,17.36-15.04,18.58c-11.87,1.69-19.55-4.67-20.79-16.35
		c-1.1-10.39,5.63-19.8,15.01-18.22C212.33,45.37,218.94,54.9,225.17,60.01z"/>
</g>
</svg>
