<?xml version="1.0" encoding="utf-8"?>
<!-- Generator: Adobe Illustrator 23.0.2, SVG Export Plug-In . SVG Version: 6.00 Build 0)  -->
<svg version="1.1" id="Capa_1" xmlns="http://www.w3.org/2000/svg" xmlns:xlink="http://www.w3.org/1999/xlink" x="0px" y="0px"
	 viewBox="0 0 400 400" style="enable-background:new 0 0 400 400;" xml:space="preserve">
<style type="text/css">
	.st0{fill:#1F1E11;}
	.st1{fill:#14130A;}
	.st2{fill:#EEEEEE;}
	.st3{fill:#242215;}
	.st4{fill:#EED709;}
	.st5{fill:#2C2A1C;}
	.st6{fill:#18170A;}
	.st7{fill:#F6DE09;}
	.st8{fill:#F0B404;}
	.st9{fill:#201D01;}
	.st10{fill:#1A1300;}
</style>
<g>
	<path class="st0" d="M390.17,197.37c5.61,0.84,4.29,11.37,12.36,8.77c0,11.06,0,22.11,0,33.17c-31.4,21.41-52.28,49.94-58.51,87.77
		c-2.71,16.46-12.31,29.01-27.63,28.23c-45-2.3-78.37,22.54-113.85,43.22c-4.44,0-8.89,0-13.33,0c1.57-7.62-13.49-7.95-7.7-17.41
		c12.88-4.57,27.24,3.25,40.1-8.53c22.61-20.71,51.04-29.6,81.81-29.55c17.38,0.03,25.18-8,28.44-24.87
		c5.75-29.8,19.97-55.8,44.16-74.84c14.15-11.13,14.32-23.03,7.07-37.25C385.44,203.19,387.81,200.28,390.17,197.37z"/>
	<path class="st1" d="M262.54,0.48c26.43,9.57,33.96,37.68,53.49,53.99c-19.55,9.05-24.91-8.02-32.56-18.59
		c-8.15-11.26-15.36-23.18-31.57-16.59c-44.23,17.97-87.38,1-130.94-2.96c0.14-9.78,13.95-6.83,14.92-15.86c4.44,0,8.89,0,13.33,0
		c33.33,17.41,66.67,22.79,100,0C253.65,0.48,258.09,0.48,262.54,0.48z"/>
	<path class="st2" d="M249.2,0.48c-33.33,22.79-66.67,17.41-100,0C182.54,0.48,215.87,0.48,249.2,0.48z"/>
	<path class="st3" d="M2.54,206.14c4.46-0.53,8.92-1.05,13.39-1.58c-6.98,29.04,22.66,40.2,30.56,61.98
		c-22.92,4.15-27.1-21.66-43.95-27.23C2.54,228.26,2.54,217.2,2.54,206.14z"/>
	<path class="st4" d="M46.49,266.54c-7.9-21.78-37.54-32.94-30.56-61.98c6.48-18.83,16.9-36.48,17.34-57.13
		c15.67-15.15-1.71-33.22,4.41-49.21c9.76-7.54,24.98-6.41,31.29-19.45c0,0-0.94,0.84-0.94,0.84c10.15-1.44,21.81-2.04,8.94-16.11
		c2.85-1.2,5.7-2.41,8.55-3.61c16.87,10.09,20.2-1.67,23.07-14.17c0,0-0.57,0.4-0.56,0.39c10.92,2.77,11.01-6.39,13.89-12.48
		c3.19-5.62,11.57-11.25,0.01-16.88c0,0-0.96-0.43-0.96-0.42c43.56,3.96,86.71,20.93,130.94,2.96c16.21-6.59,23.42,5.33,31.57,16.59
		c7.65,10.57,13.01,27.64,32.56,18.59c0.02,0.01,0.08,2,0.08,2c-8.32,23.76,14.37,24.16,25.37,29.06
		c21.03,9.38,31.26,17.55,23.15,43.99c-6.64,21.64-3.6,46.8,18.45,63.27c0,0-0.21-0.29-0.21-0.29c-9.27,4.68-1.82,9.09,0.22,13.59
		c7.25,14.21,7.08,26.11-7.07,37.25c-24.2,19.04-38.41,45.04-44.16,74.84c-3.26,16.87-11.06,24.9-28.44,24.87
		c-30.76-0.05-59.2,8.84-81.81,29.55c-12.86,11.78-27.22,3.96-40.1,8.53c-0.01-0.01,0.51-1.3,0.51-1.3
		c-4.56-15.62-8.64-18.28-20.18-13.22c0,0-0.21-0.16-0.21-0.17c-15.41-21.24-50.4-29.43-85.94-20.1c0,0-0.66-0.57-0.65-0.57
		c4.75-16.28,3.34-30.45-13.56-39.34c0,0-0.23-0.48-0.23-0.48C72.74,287.87,58.67,279,47.76,269
		C46.57,267.77,46.14,266.95,46.49,266.54z M236.98,67.51c-9.12-0.23-18.23-0.46-27.35-0.69c-41.71-13.67-72.46,5.49-100.37,33.17
		c-2.27,4.42-4.54,8.85-6.81,13.27c-9.83-1.86-13.51,5.52-17.8,11.83c-36.94,54.34-26.4,131.42,24.2,177.35
		c52.33,47.49,131.17,48.46,184.76,2.27c51.72-44.58,63.86-121.27,28.4-176.7c-6.35-9.92-12.45-18.36-26.04-14.73
		c-7.83-0.13-12.79-3.52-13.48-11.76c8.32-4.08,8.21-9.76,1.3-14.35C269.53,77.71,255.46,67.26,236.98,67.51z"/>
	<path class="st0" d="M75.68,346.34c35.54-9.33,70.53-1.14,85.94,20.1C133.55,357.32,101.55,364.79,75.68,346.34z"/>
	<path class="st0" d="M61.46,306.43c16.9,8.89,18.31,23.06,13.56,39.34C55.67,337.72,59.4,321.79,61.46,306.43z"/>
	<path class="st0" d="M47.76,269c10.91,10.01,24.98,18.87,13.47,36.96C51.31,295.59,38.41,286.31,47.76,269z"/>
	<path class="st0" d="M161.82,366.61c11.55-5.07,15.62-2.4,20.18,13.22C171.19,381.6,160.98,382.46,161.82,366.61z"/>
	<path class="st5" d="M37.67,98.22c-6.12,15.99,11.27,34.07-4.41,49.21c-11.05-20.99-20.71-41.92,2.44-61.56
		C36.36,89.99,37.01,94.11,37.67,98.22z"/>
	<path class="st6" d="M37.67,98.22c-0.66-4.12-1.31-8.23-1.97-12.35c10.62-4.52,18.99-19.42,33.25-7.1
		C62.64,91.82,47.43,90.68,37.67,98.22z"/>
	<path class="st6" d="M108.57,45.72c-2.87,12.5-6.2,24.25-23.07,14.17C92.77,54.49,93.71,38.89,108.57,45.72z"/>
	<path class="st1" d="M121.91,16.76c11.55,5.64,3.18,11.26-0.01,16.88c-4.19,0.01-8.39,0.02-12.58,0.02
		C112.1,26.98,113.23,19.09,121.91,16.76z"/>
	<path class="st6" d="M109.31,33.66c4.19-0.01,8.39-0.02,12.58-0.02c-2.88,6.09-2.97,15.25-13.89,12.48
		C101.08,41.2,104.72,37.38,109.31,33.66z"/>
	<path class="st6" d="M76.95,63.5c12.87,14.07,1.22,14.68-8.94,16.11C60.24,68.34,73.01,68.35,76.95,63.5z"/>
	<path class="st1" d="M383.07,192.79c-22.05-16.47-25.09-41.62-18.45-63.27c8.11-26.44-2.12-34.61-23.15-43.99
		c-10.99-4.9-33.69-5.3-25.37-29.06c52.49,17.04,72.76,51.96,60.82,106.02C374.72,172.42,386.29,181.51,383.07,192.79z"/>
	<path class="st1" d="M383.08,206.09c-2.03-4.5-9.48-8.92-0.22-13.59c2.44,1.63,4.88,3.25,7.31,4.87
		C387.81,200.28,385.44,203.19,383.08,206.09z"/>
	<path class="st7" d="M282.49,101.54c0.69,8.24,5.65,11.63,13.48,11.76c4.08,6.34,8.22,12.64,12.22,19.03
		c37.55,60.04,19.8,136.85-40.08,173.49c-61.83,37.83-136.78,17.9-173.93-46.25c25.6-20.11,16.65-51.72,25.96-77.25
		c2.22-7.83,2.29-16.57,9.45-22.33c1.88-2.98,3.75-5.95,5.63-8.93c1.35-1.99,2.69-3.99,4.04-5.98
		c37.55-20.06,76.83-35.53,118.43-45.16c2.22-0.51,3.46-5.2,5.16-7.94C269.38,95.15,275.94,98.34,282.49,101.54z"/>
	<path class="st8" d="M120.13,182.31c-9.31,25.53-0.36,57.14-25.96,77.25c-24.34-38.11-21.55-77.02-3.8-116.56
		c4.37-9.75,14.94-17.08,12.07-29.74c2.27-4.42,4.54-8.85,6.81-13.27c33.46-11.06,66.91-22.11,100.37-33.17
		c9.12,0.23,18.23,0.46,27.35,0.69c-2.63,19.93,19.94,13.47,25.85,24.45c-1.7,2.74-2.94,7.43-5.16,7.94
		c-41.6,9.62-80.88,25.1-118.42,45.15c0.5-6.64,9.61-22.85-8.79-10.8c-13.63,8.93-21.04,24.83-22.65,41.72
		C106.86,186,112.97,186.05,120.13,182.31z"/>
	<path class="st9" d="M102.44,113.27c2.87,12.66-7.7,19.99-12.07,29.74c-17.74,39.54-20.54,78.45,3.8,116.56
		c37.15,64.15,112.1,84.08,173.93,46.25c59.88-36.64,77.64-113.45,40.08-173.49c-4-6.39-8.14-12.69-12.22-19.03
		c13.59-3.64,19.69,4.8,26.04,14.73c35.46,55.43,23.31,132.12-28.4,176.7c-53.59,46.19-132.42,45.23-184.76-2.27
		C58.24,256.52,47.7,179.44,84.64,125.1C88.93,118.78,92.62,111.4,102.44,113.27z"/>
	<path class="st9" d="M209.63,66.82C176.17,77.88,142.71,88.94,109.26,100C137.16,72.31,167.92,53.16,209.63,66.82z"/>
	<path class="st9" d="M262.83,91.96c-5.91-10.98-28.48-4.53-25.85-24.45c18.48-0.25,32.55,10.2,46.82,19.67
		c6.91,4.59,7.02,10.27-1.3,14.35C275.94,98.34,269.38,95.15,262.83,91.96z"/>
	<path class="st10" d="M120.13,182.31c-7.17,3.74-13.28,3.7-12.33-6.33c1.6-16.89,9.02-32.79,22.65-41.72
		c18.4-12.06,9.29,4.16,8.79,10.8c-1.35,2-2.7,3.99-4.04,5.99c-1.88,2.98-3.75,5.95-5.63,8.93
		C122.42,165.74,122.36,174.48,120.13,182.31z"/>
	<path class="st8" d="M129.58,159.98c1.88-2.98,3.75-5.95,5.63-8.93C133.33,154.02,131.46,157,129.58,159.98z"/>
</g>
</svg>
